<svg width="205" height="20" viewBox="0 0 205 20" fill="none" xmlns="http://www.w3.org/2000/svg">
  <path
    d="M14.4671 9.60854C16.1635 9.06287 17.271 7.52076 17.271 5.59906C17.271 2.51483 14.9148 0.450775 10.6972 0.450775H0V19.5018H10.7914C15.3624 19.5018 18.0956 17.3191 18.0956 13.8078C18.0956 11.8387 16.6819 10.2017 14.4671 9.60854ZM5.20721 4.57889H9.94317C11.1448 4.57889 11.8517 5.10083 11.8517 6.26335C11.8517 7.28351 11.1448 7.90036 9.94317 7.90036H5.20721V4.57889ZM10.5087 15.4211H5.20721V11.7675H10.4851C11.8517 11.7675 12.6057 12.5504 12.6057 13.5706C12.6057 14.5908 11.8753 15.4211 10.5087 15.4211Z"
    fill="white" />
  <path d="M25.2349 0.474487H19.8392V19.5255H25.2349V0.474487Z" fill="white" />
  <path
    d="M69.5315 0.474487L62.8871 19.5255H68.4713L69.2959 16.8446H76.2232L77.0714 19.5255H83.0326L76.3881 0.474487H69.5315ZM70.7332 12.2894L71.228 10.6761C71.8406 8.77816 72.3354 7.25978 72.7124 5.74139H72.8773C73.2308 7.25978 73.6785 8.77816 74.2675 10.6761L74.7623 12.2894H70.7332Z"
    fill="white" />
  <path
    d="M91.8448 0.474487H84.0457V19.5255H91.8448C98.1358 19.5255 102 15.2076 102 9.98813C102 4.74495 98.1358 0.474487 91.8448 0.474487ZM91.7505 14.6856H89.3943V5.29062H91.7505C94.6958 5.29062 96.2037 7.3784 96.2037 9.98813C96.2037 12.5741 94.6958 14.6856 91.7505 14.6856Z"
    fill="white" />
  <path
    d="M50.6112 7.09371C51.6008 5.90747 53.1088 5.10083 54.5932 5.10083C56.3368 5.10083 57.6327 5.78885 59.2114 7.21234L59.5648 7.54448L62.3687 3.53499L62.2273 3.36892C60.3188 1.23369 57.5149 0 54.5932 0C51.2238 0 48.0901 1.96916 46.5821 3.77224C45.4747 5.12456 44.65 6.73784 43.7782 8.4223C42.2703 11.3405 41.0922 13.4282 39.3721 14.3298C38.736 14.6619 38.0527 14.8517 37.228 14.8517C35.885 14.8517 34.6362 14.3535 33.6937 13.4282C32.7512 12.503 32.2328 11.293 32.2328 9.98814C32.2328 7.30724 34.4712 5.10083 37.228 5.10083C39.1365 5.10083 40.668 5.8363 41.799 7.33096L41.8461 7.40214L44.4144 2.91815C42.5294 1.06762 39.9376 0 37.2516 0C31.6202 0 27.0256 4.48399 27.0256 9.98814C27.0256 15.4923 31.6202 19.9763 37.2516 19.9763C43.7075 19.9763 46.4643 14.6382 48.4671 10.7236C49.2211 9.27639 49.8572 8.01898 50.6112 7.09371Z"
    fill="white" />
  <path
    d="M59.7297 12.0522C58.6459 13.7604 56.7609 14.8992 54.6168 14.8992C54.5932 14.8992 54.5697 14.8992 54.5697 14.8992C54.5461 14.8992 54.5461 14.8992 54.5225 14.8992C53.58 14.8992 52.6847 14.6619 51.86 14.2111C51.1296 13.8315 50.4699 13.2859 49.9515 12.6453L47.4068 17.0818C49.2918 18.9324 51.8365 20 54.5225 20C57.5385 20 60.3895 18.6951 62.298 16.3938L63.0049 15.6109L59.7297 12.0522Z"
    fill="white" />
  <path d="M109.588 0.28169V15.493H118.736V19.7183H105V0.28169H109.588Z" fill="#09AFAB" />
  <path
    d="M134.126 0.28169V4.28169H124.806V7.88732H133.001V11.7746H124.806V15.6901H134.155V19.7183H120.217V0.28169H134.126Z"
    fill="#09AFAB" />
  <path
    d="M140.04 13.1549C140.348 15.3709 141.762 16.4789 144.282 16.4789C145.34 16.4789 146.177 16.2911 146.792 15.9155C147.408 15.5399 147.716 14.9859 147.716 14.2535C147.716 13.7277 147.552 13.3239 147.225 13.0423C146.898 12.7418 146.465 12.507 145.927 12.338C145.388 12.169 144.772 12.0376 144.08 11.9437C143.387 11.831 142.675 11.7089 141.944 11.5775C141.233 11.4272 140.53 11.2394 139.838 11.0141C139.145 10.7887 138.53 10.4695 137.991 10.0563C137.452 9.64319 137.02 9.10798 136.692 8.4507C136.365 7.77465 136.202 6.93897 136.202 5.94366C136.202 5.02347 136.385 4.19718 136.75 3.46479C137.116 2.73239 137.635 2.11268 138.308 1.60563C139.001 1.07981 139.828 0.685447 140.79 0.422535C141.752 0.140845 142.839 0 144.051 0C145.186 0 146.215 0.131455 147.139 0.394366C148.081 0.657277 148.899 1.06103 149.591 1.60563C150.284 2.15024 150.832 2.84507 151.236 3.69014C151.64 4.51643 151.881 5.51174 151.958 6.67606H147.456C147.398 6.22535 147.293 5.81221 147.139 5.43662C147.004 5.04225 146.792 4.70423 146.504 4.42254C146.234 4.14085 145.879 3.92488 145.436 3.77465C145.013 3.60563 144.493 3.52113 143.878 3.52113C142.82 3.52113 142.021 3.7277 141.483 4.14085C140.963 4.53521 140.704 5.05164 140.704 5.69014C140.704 6.38498 140.983 6.89202 141.54 7.21127C142.118 7.53052 142.829 7.77465 143.676 7.94366C144.542 8.11268 145.475 8.2723 146.475 8.42253C147.475 8.57277 148.399 8.83568 149.245 9.21127C150.111 9.58685 150.823 10.1408 151.381 10.8732C151.958 11.5869 152.246 12.6009 152.246 13.9155C152.246 14.8357 152.054 15.6714 151.669 16.4225C151.304 17.1737 150.765 17.8122 150.053 18.338C149.361 18.8638 148.514 19.277 147.514 19.5775C146.533 19.8592 145.426 20 144.195 20C141.617 20 139.588 19.446 138.106 18.338C136.625 17.2113 135.769 15.4836 135.538 13.1549H140.04Z"
    fill="#09AFAB" />
  <path
    d="M157.794 13.1549C158.101 15.3709 159.515 16.4789 162.036 16.4789C163.094 16.4789 163.93 16.2911 164.546 15.9155C165.162 15.5399 165.469 14.9859 165.469 14.2535C165.469 13.7277 165.306 13.3239 164.979 13.0423C164.652 12.7418 164.219 12.507 163.68 12.338C163.142 12.169 162.526 12.0376 161.834 11.9437C161.141 11.831 160.429 11.7089 159.698 11.5775C158.986 11.4272 158.284 11.2394 157.592 11.0141C156.899 10.7887 156.283 10.4695 155.745 10.0563C155.206 9.64319 154.773 9.10798 154.446 8.4507C154.119 7.77465 153.956 6.93897 153.956 5.94366C153.956 5.02347 154.138 4.19718 154.504 3.46479C154.869 2.73239 155.389 2.11268 156.062 1.60563C156.755 1.07981 157.582 0.685447 158.544 0.422535C159.506 0.140845 160.593 0 161.805 0C162.94 0 163.969 0.131455 164.892 0.394366C165.835 0.657277 166.653 1.06103 167.345 1.60563C168.038 2.15024 168.586 2.84507 168.99 3.69014C169.394 4.51643 169.634 5.51174 169.711 6.67606H165.21C165.152 6.22535 165.046 5.81221 164.892 5.43662C164.758 5.04225 164.546 4.70423 164.257 4.42254C163.988 4.14085 163.632 3.92488 163.19 3.77465C162.767 3.60563 162.247 3.52113 161.632 3.52113C160.573 3.52113 159.775 3.7277 159.236 4.14085C158.717 4.53521 158.457 5.05164 158.457 5.69014C158.457 6.38498 158.736 6.89202 159.294 7.21127C159.871 7.53052 160.583 7.77465 161.43 7.94366C162.295 8.11268 163.228 8.2723 164.229 8.42253C165.229 8.57277 166.152 8.83568 166.999 9.21127C167.865 9.58685 168.576 10.1408 169.134 10.8732C169.711 11.5869 170 12.6009 170 13.9155C170 14.8357 169.808 15.6714 169.423 16.4225C169.057 17.1737 168.519 17.8122 167.807 18.338C167.114 18.8638 166.268 19.277 165.267 19.5775C164.286 19.8592 163.18 20 161.949 20C159.371 20 157.341 19.446 155.86 18.338C154.379 17.2113 153.523 15.4836 153.292 13.1549H157.794Z"
    fill="#09AFAB" />
  <path
    d="M179.901 10C179.15 10 178.472 9.86854 177.868 9.60563C177.265 9.34272 176.75 8.98592 176.323 8.53521C175.896 8.08451 175.566 7.55869 175.334 6.95775C175.111 6.34742 175 5.69484 175 5C175 4.29577 175.111 3.64319 175.334 3.04225C175.566 2.43193 175.896 1.90141 176.323 1.4507C176.75 1 177.265 0.647887 177.868 0.394366C178.472 0.131455 179.15 0 179.901 0C180.57 0 181.169 0.0938969 181.698 0.281691C182.236 0.460094 182.705 0.713615 183.104 1.04225C183.513 1.37089 183.842 1.76526 184.093 2.22535C184.353 2.67606 184.538 3.1784 184.65 3.73239H182.338C182.125 3.23474 181.818 2.84507 181.419 2.56338C181.02 2.2723 180.514 2.12676 179.901 2.12676C179.493 2.12676 179.122 2.20188 178.788 2.35211C178.453 2.49296 178.17 2.69484 177.938 2.95775C177.706 3.21127 177.525 3.51643 177.395 3.87324C177.274 4.22066 177.214 4.59624 177.214 5C177.214 5.40376 177.274 5.77934 177.395 6.12676C177.525 6.47418 177.706 6.77934 177.938 7.04225C178.17 7.29577 178.453 7.49765 178.788 7.64789C179.122 7.78873 179.493 7.85915 179.901 7.85915C180.514 7.85915 181.02 7.71831 181.419 7.43662C181.818 7.15493 182.125 6.76056 182.338 6.25352H184.65C184.538 6.78873 184.353 7.28638 184.093 7.74648C183.833 8.20657 183.503 8.60563 183.104 8.94366C182.705 9.2723 182.236 9.53052 181.698 9.71831C181.159 9.9061 180.561 10 179.901 10Z"
    fill="white" />
  <path
    d="M188.28 0.140845L190.202 5.04225C190.304 5.33333 190.392 5.59624 190.466 5.83099C190.55 6.06573 190.615 6.30047 190.661 6.53521H190.786C190.833 6.30047 190.893 6.06573 190.967 5.83099C191.042 5.59624 191.13 5.33333 191.232 5.04225L193.168 0.140845H196.05V9.85915H193.836V5.30986C193.836 5.03756 193.841 4.75587 193.85 4.46479C193.859 4.17371 193.878 3.9061 193.906 3.66197H193.78C193.715 3.88732 193.641 4.12207 193.557 4.3662C193.474 4.61033 193.358 4.92488 193.209 5.30986L191.427 9.85915H189.784L187.988 5.30986C187.867 5.00939 187.76 4.7277 187.667 4.46479C187.574 4.19249 187.491 3.92488 187.417 3.66197H187.291C187.319 3.93427 187.338 4.21127 187.347 4.49296C187.356 4.76526 187.361 5.03756 187.361 5.30986V9.85915H185.384V0.140845H188.28Z"
    fill="white" />
  <path
    d="M199.11 6.57747C199.258 7.68545 199.941 8.23944 201.157 8.23944C201.667 8.23944 202.071 8.14554 202.368 7.95775C202.665 7.76995 202.814 7.49296 202.814 7.12676C202.814 6.86385 202.735 6.66197 202.577 6.52113C202.419 6.37089 202.21 6.25352 201.951 6.16901C201.691 6.08451 201.394 6.01878 201.059 5.97183C200.725 5.91549 200.382 5.85446 200.029 5.78873C199.685 5.71361 199.347 5.61972 199.012 5.50704C198.678 5.39437 198.381 5.23474 198.121 5.02817C197.861 4.8216 197.652 4.55399 197.495 4.22535C197.337 3.88732 197.258 3.46948 197.258 2.97183C197.258 2.51174 197.346 2.09859 197.522 1.73239C197.699 1.3662 197.949 1.05634 198.274 0.802817C198.609 0.539907 199.008 0.342723 199.472 0.211267C199.936 0.0704225 200.461 0 201.045 0C201.593 0 202.09 0.0657277 202.535 0.197183C202.99 0.328638 203.385 0.530517 203.719 0.802817C204.053 1.07512 204.318 1.42254 204.513 1.84507C204.708 2.25822 204.824 2.75587 204.861 3.33803H202.689C202.661 3.11268 202.61 2.9061 202.535 2.71831C202.47 2.52113 202.368 2.35211 202.229 2.21127C202.099 2.07042 201.927 1.96244 201.714 1.88732C201.51 1.80282 201.259 1.76056 200.962 1.76056C200.451 1.76056 200.066 1.86385 199.806 2.07042C199.555 2.26761 199.43 2.52582 199.43 2.84507C199.43 3.19249 199.565 3.44601 199.834 3.60563C200.112 3.76526 200.456 3.88732 200.864 3.97183C201.282 4.05634 201.732 4.13615 202.215 4.21127C202.698 4.28639 203.143 4.41784 203.552 4.60563C203.97 4.79343 204.313 5.07042 204.582 5.43662C204.861 5.79343 205 6.30047 205 6.95775C205 7.41784 204.907 7.83568 204.722 8.21127C204.545 8.58685 204.285 8.9061 203.942 9.16901C203.608 9.43192 203.199 9.6385 202.716 9.78873C202.243 9.92958 201.709 10 201.115 10C199.871 10 198.892 9.72301 198.177 9.16901C197.462 8.60563 197.049 7.74178 196.938 6.57747H199.11Z"
    fill="white" />
</svg>