<svg width="18" height="10" viewBox="0 0 18 10" fill="none" xmlns="http://www.w3.org/2000/svg"><path d="M16.884.718c.114-.387 0-.672-.546-.672h-1.806c-.46 0-.672.245-.785.517 0 0-.92 2.265-2.22 3.733-.42.424-.614.56-.844.56-.114 0-.288-.136-.288-.523V.718c0-.465-.13-.672-.51-.672h-2.84c-.288 0-.46.217-.46.418 0 .44.65.542.718 1.781v2.69c0 .588-.104.696-.334.696-.614 0-2.104-2.274-2.988-4.876-.178-.505-.352-.71-.816-.71H1.36c-.515 0-.62.246-.62.518 0 .483.614 2.884 2.856 6.056 1.493 2.166 3.597 3.34 5.511 3.34 1.15 0 1.292-.26 1.292-.71 0-2.069-.105-2.264.472-2.264.267 0 .727.136 1.8 1.18 1.227 1.24 1.43 1.794 2.117 1.794h1.806c.515 0 .776-.26.626-.775-.344-1.08-2.666-3.305-2.77-3.454-.267-.347-.19-.502 0-.811.003-.003 2.208-3.138 2.435-4.2z" fill="currentColor"></path></svg>